Coordinates
version=1
nRows=12
nColumns=24
inDegrees=yes

Units are S.I. units (second, meters, Newtons, ...)
Angles are in degrees.

endheader
time	pelvis_tilt	pelvis_list	pelvis_rotation	pelvis_tx	pelvis_ty	pelvis_tz	hip_flexion_r	hip_adduction_r	hip_rotation_r	knee_angle_r	ankle_angle_r	subtalar_angle_r	mtp_angle_r	hip_flexion_l	hip_adduction_l	hip_rotation_l	knee_angle_l	ankle_angle_l	subtalar_angle_l	mtp_angle_l	lumbar_extension	lumbar_bending	lumbar_rotation
      1.61466667	     -3.08288277	      6.49485111	     -1.93217746	      0.53534891	      0.99498838	      0.26574472	     25.10783595	     -7.59425783	      1.92469459	    -63.15618455	      3.88590014	    -14.28005050	      1.48800324	      6.98058307	     12.50579386	      0.66061231	     -6.30708749	      0.62641370	    -13.73202439	     -1.03461633	      1.73479446	     -4.48183807	      4.88255615
      1.61883333	     -3.01780493	      6.38921454	     -1.77437858	      0.54000209	      0.99535765	      0.26547305	     25.50890923	     -7.47309405	      1.85083812	    -62.46622889	      4.27311366	    -14.32147585	      1.36738333	      6.44852854	     12.43909182	      0.95251794	     -6.04667180	      0.68137557	    -13.81578625	     -1.07145708	      1.60572134	     -4.37942281	      4.68565511
      1.62300000	     -2.98873596	      6.27676382	     -1.59908431	      0.54462887	      0.99565239	      0.26521102	     25.93024140	     -7.34390347	      1.76567224	    -61.73388072	      4.63605848	    -14.35360535	      1.30416319	      5.98004914	     12.35746443	      1.21555035	     -5.83468272	      0.76479645	    -13.83001392	     -1.08865776	      1.52197453	     -4.27933396	      4.56911662
      1.62716667	     -2.91625203	      6.17470799	     -1.43248844	      0.54927620	      0.99597615	      0.26495623	     26.28989579	     -7.23170984	      1.67920062	    -60.96447823	      4.95997359	    -14.39025480	      1.22849722	      5.44812159	     12.28576772	      1.49845706	     -5.58734007	      0.83766505	    -13.88807827	     -1.10880546	      1.38328107	     -4.18517977	      4.37883918
      1.63133333	     -2.82361307	      6.09724410	     -1.28333960	      0.55393954	      0.99628799	      0.26469583	     26.62358063	     -7.14947148	      1.60257165	    -60.16895829	      5.20579691	    -14.42669248	      1.08895665	      4.87107179	     12.23988866	      1.80560659	     -5.28703352	      0.87884002	    -14.02416079	     -1.14623744	      1.21908974	     -4.10597935	      4.08393364
      1.63550000	     -2.79504439	      5.99778347	     -1.10198513	      0.55855217	      0.99647572	      0.26444384	     27.00526632	     -7.04354314	      1.50284167	    -59.33670737	      5.46317389	    -14.45146335	      1.01656653	      4.41490787	     12.16025069	      2.06492009	     -5.09188867	      0.97484703	    -14.02969723	     -1.16241663	      1.13256223	     -4.01770471	      3.97071911
      1.63966667	     -2.71622363	      5.93759736	     -0.94798730	      0.56318720	      0.99668087	      0.26420633	     27.33269195	     -6.98014008	      1.42484434	    -58.48811966	      5.65545170	    -14.49038238	      0.85822556	      3.86447393	     12.12233096	      2.36221239	     -4.80789534	      1.03374875	    -14.14753776	     -1.19955331	      0.98244808	     -3.96447123	      3.67474622
      1.64383333	     -2.68599795	      5.85811635	     -0.77424705	      0.56780825	      0.99680426	      0.26396221	     27.68900318	     -6.89873081	      1.32736509	    -57.59782949	      5.82835147	    -14.53439793	      0.69524302	      3.39334590	     12.05744815	      2.63753844	     -4.58173683	      1.12912809	    -14.20223634	     -1.23478073	      0.89393174	     -3.89295931	      3.46672676
      1.64800000	     -2.66242086	      5.77576391	     -0.59400133	      0.57241537	      0.99689485	      0.26373156	     28.03413689	     -6.81480870	      1.22474988	    -56.67284305	      5.99302997	    -14.56462649	      0.60835841	      2.95082776	     11.98274071	      2.88076353	     -4.39731459	      1.24098301	    -14.18039244	     -1.24985242	      0.81374789	     -3.82028862	      3.35211376
      1.65216667	     -2.60419952	      5.72053908	     -0.44069907	      0.57703839	      0.99698578	      0.26352754	     28.34120649	     -6.75559036	      1.14027537	    -55.73484700	      6.09377500	    -14.62731929	      0.44352426	      2.44120049	     11.93428639	      3.13698114	     -4.14599200	      1.33668711	    -14.23080303	     -1.27970470	      0.68378615	     -3.77691762	      3.07587280
      1.65633333	     -2.56427928	      5.66215705	     -0.27418784	      0.58164858	      0.99703778	      0.26331746	     28.64653245	     -6.69653878	      1.04548693	    -54.76123545	      6.19054604	    -14.67032177	      0.27473520	      1.96944505	     11.87776418	      3.38457901	     -3.93313022	      1.44779346	    -14.24345890	     -1.30788967	      0.58435666	     -3.72865283	      2.87024371
      1.66050000	     -2.60137435	      5.63426716	     -0.12234781	      0.58624061	      0.99690463	      0.26312747	     29.04702190	     -6.66083270	      0.98042158	    -53.80103094	      6.30501694	    -14.68172193	      0.23493945	      1.59325746	     11.84845010	      3.58922924	     -3.73718945	      1.58012398	    -14.16100579	     -1.30988854	      0.58239310	     -3.71632841	      2.81938988
